<svg height="511pt" viewBox="0 0 511.99696 511" width="511pt" xmlns="http://www.w3.org/2000/svg"><path d="m440.964844 388.949219c-.003906 0-.003906 0 0 0l-77.542969-50.957031c-18.460937-12.128907-42.421875-11.074219-59.628906 2.617187-15.074219 11.996094-36.707031 10.769531-50.328125-2.851563l-78.730469-78.730468c-13.617187-13.617188-14.84375-35.253906-2.851563-50.324219 13.695313-17.210937 14.746094-41.175781 2.617188-59.632813l-50.957031-77.542968c-8.910157-13.558594-22.730469-21.671875-38.917969-22.847656-16.1875-1.167969-31.03125 4.863281-41.800781 16.996093-59.6875 67.210938-56.628907 169.667969 6.960937 233.253907l163.777344 163.78125c33.085938 33.085937 76.691406 49.78125 120.386719 49.78125 40.277343 0 80.628906-14.191407 112.871093-42.820313 12.128907-10.773437 18.164063-25.621094 16.992188-41.804687-1.175781-16.183594-9.289062-30.003907-22.847656-38.917969zm-14.066406 58.292969c-55.355469 49.160156-139.75 46.636718-192.128907-5.742188l-163.777343-163.777344c-52.378907-52.378906-54.902344-136.773437-5.742188-192.128906 4.164062-4.691406 9.347656-7.0625 15.4375-7.0625.578125 0 1.167969.023438 1.769531.066406 6.851563.496094 12.242188 3.660156 16.015625 9.40625l50.957032 77.539063c5.070312 7.71875 4.667968 17.328125-1.019532 24.480469-21.5 27.019531-19.300781 65.800781 5.113282 90.214843l78.730468 78.730469c24.414063 24.414062 63.195313 26.613281 90.214844 5.113281 7.152344-5.691406 16.761719-6.089843 24.476562-1.019531l77.542969 50.957031c5.742188 3.773438 8.90625 9.164063 9.402344 16.015625.5 6.855469-1.855469 12.644532-6.992187 17.207032zm0 0"/><path d="m507.589844 4.878906c-2.925782-2.921875-6.757813-4.378906-10.589844-4.378906-3.84375 0-7.691406 1.46875-10.621094 4.40625l-167.355468 167.785156.003906-54.207031c0-8.28125-6.714844-14.996094-14.996094-14.996094-8.285156 0-15 6.714844-15 14.996094l-.003906 90.484375c0 3.976562 1.578125 7.792969 4.394531 10.605469 2.8125 2.8125 6.625 4.394531 10.601563 4.394531h90.488281c8.285156 0 15-6.714844 15-15 0-8.28125-6.714844-14.996094-15-14.996094h-54.34375l167.449219-167.882812c5.851562-5.867188 5.839843-15.363282-.027344-21.210938zm0 0"/></svg>