<?xml version="1.0" encoding="iso-8859-1"?>
<!-- Generator: Adobe Illustrator 19.0.0, SVG Export Plug-In . SVG Version: 6.00 Build 0)  -->
<svg version="1.1" id="Capa_1" xmlns="http://www.w3.org/2000/svg" xmlns:xlink="http://www.w3.org/1999/xlink" x="0px" y="0px"
	 viewBox="0 0 512 512" style="enable-background:new 0 0 512 512;" xml:space="preserve">
<g>
	<g>
		<path d="M368,0H144c-26.51,0-48,21.49-48,48v416c0,26.51,21.49,48,48,48h224c26.51,0,48-21.49,48-48V48C416,21.49,394.51,0,368,0z
			 M384,464c0,8.837-7.163,16-16,16H144c-8.837,0-16-7.163-16-16v-80h256V464z M384,352H128V112h256V352z M384,80H128V48
			c0-8.837,7.163-16,16-16h224c8.837,0,16,7.163,16,16V80z"/>
	</g>
</g>
<g>
	<g>
		<rect x="240" y="416" width="32" height="32"/>
	</g>
</g>
<g>
</g>
<g>
</g>
<g>
</g>
<g>
</g>
<g>
</g>
<g>
</g>
<g>
</g>
<g>
</g>
<g>
</g>
<g>
</g>
<g>
</g>
<g>
</g>
<g>
</g>
<g>
</g>
<g>
</g>
</svg>
